<svg width="16" height="15" fill="none" xmlns="http://www.w3.org/2000/svg"><path fill-rule="evenodd" clip-rule="evenodd" d="M8 0C3.58 0 0 3.36 0 7.5 0 11.64 3.58 15 8 15s8-3.36 8-7.5C16 3.36 12.42 0 8 0zm.65 9.87a.46.46 0 01-.23.1H7.9s-1.13.05-2.12-.9C4.71 8.04 3.76 5.98 3.76 5.98s-.06-.13 0-.2c.07-.07.25-.07.25-.07l1.22-.01s.12.02.2.07c.07.05.1.13.1.13s.2.46.46.88c.51.8.75.98.92.9.25-.13.18-1.15.18-1.15s0-.37-.13-.53c-.1-.13-.3-.17-.38-.18-.07 0 .05-.15.2-.22a3 3 0 011.06-.1c.35 0 .46.02.6.06.32.07.31.3.29.8l-.02.51v.15c0 .25-.02.54.17.65.1.06.32 0 .89-.88.27-.43.47-.92.47-.92s.05-.1.12-.13c.07-.04.16-.03.16-.03h1.29s.38-.05.44.11c.07.17-.14.56-.66 1.2-.5.61-.74.84-.72 1.04.01.14.17.27.47.53.63.54.8.83.84.9h.01c.28.44-.31.47-.31.47l-1.14.02s-.25.04-.57-.16c-.17-.11-.33-.28-.49-.45-.24-.25-.46-.49-.65-.43-.32.1-.3.72-.3.72s0 .14-.08.2z" fill="#4F4F4F"/></svg>